<svg width="321" height="75" viewBox="0 0 321 75" fill="none" xmlns="http://www.w3.org/2000/svg">
<g clip-path="url(#clip0_452_2117)">
<path d="M36.2475 0H0V23.8228C3.12724 23.066 6.15971 22.0885 9.08163 20.906C19.9322 16.4915 29.2981 9.20748 36.2475 0Z" fill="#14A7A3"/>
<path d="M0 43.1995V75H52.7366C45.7872 65.7925 36.4213 58.5085 25.5707 54.094V34.0078C20.4218 36.8772 14.8307 39.2579 9.08163 41.008C6.12812 41.9067 3.09565 42.6477 0 43.2153V43.1995Z" fill="#14A7A3"/>
<path d="M58.6436 0C51.1098 14.3 39.6749 26.1247 25.5707 34.0078C47.0507 40.535 64.8665 55.4814 75.1327 75V0H58.6436Z" fill="url(#paint0_linear_452_2117)"/>
<path d="M36.2475 0H0V23.8228C3.12724 23.066 6.15971 22.0885 9.08163 20.906C19.9322 16.4915 29.2981 9.20748 36.2475 0Z" fill="url(#paint1_linear_452_2117)"/>
<path d="M0 43.1995V75H52.7366C45.7872 65.7925 36.4213 58.5085 25.5707 54.094V34.0078C20.4218 36.8772 14.8307 39.2579 9.08163 41.008C6.12812 41.9067 3.09565 42.6477 0 43.2153V43.1995Z" fill="url(#paint2_linear_452_2117)"/>
<path d="M58.6436 0C51.1098 14.3 39.6749 26.1247 25.5707 34.0078C47.0507 40.535 64.8665 55.4814 75.1327 75V0H58.6436Z" fill="url(#paint3_linear_452_2117)"/>
<path d="M85.9833 47.614V2.11268H97.0865V25.5098L93.9593 24.4219L113.054 2.11268H126.716L108.332 22.057C109.485 22.4827 110.48 23.0029 111.333 23.6178C112.186 24.2327 112.975 24.958 113.702 25.7778C114.428 26.6134 115.155 27.5752 115.866 28.6788L128.77 47.614H115.676L105.205 31.8636C104.526 30.8388 103.688 30.3185 102.678 30.2712C101.683 30.2239 100.751 30.6811 99.8979 31.6113L93.833 38.2331L97.0865 29.9401V47.5983H85.9833V47.614Z" fill="white"/>
<path d="M150.676 48.4497C146.806 48.4497 143.427 47.7875 140.552 46.4473C137.677 45.1072 135.466 43.1522 133.918 40.5823C132.371 38.0124 131.581 34.9065 131.581 31.2487V2.11268H142.621V30.9176C142.621 32.8726 142.984 34.4808 143.711 35.7578C144.437 37.0349 145.432 37.9809 146.712 38.5958C147.991 39.2106 149.413 39.526 150.992 39.526C152.65 39.526 154.103 39.2106 155.367 38.5958C156.615 37.9809 157.61 37.0349 158.336 35.7578C159.063 34.4808 159.426 32.8726 159.426 30.9176V2.11268H169.392V30.9176C169.392 34.6542 168.681 37.839 167.26 40.4404C165.838 43.0576 163.722 45.0441 160.942 46.4C158.147 47.7559 154.735 48.4339 150.692 48.4339L150.676 48.4497Z" fill="white"/>
<path d="M176.847 2.11268H187.95V47.6298H176.847V2.11268Z" fill="white"/>
<path d="M195.816 47.614V2.11268H217.596C219.933 2.11268 222.113 2.45953 224.103 3.13748C226.109 3.81543 227.83 4.82447 229.268 6.13307C230.721 7.45743 231.858 9.06559 232.679 10.9733C233.516 12.881 233.927 15.0883 233.927 17.5951C233.927 20.102 233.516 22.3092 232.679 24.2169C231.842 26.1247 230.705 27.7486 229.268 29.0572C227.815 30.3815 226.093 31.3906 224.103 32.0843C222.097 32.778 219.933 33.1406 217.596 33.1406H206.935V47.614H195.816ZM206.935 24.3588H215.874C217.154 24.3588 218.291 24.0908 219.286 23.5548C220.281 23.0187 221.086 22.2619 221.686 21.2529C222.287 20.2596 222.587 19.0299 222.587 17.5951C222.587 15.4667 221.955 13.827 220.676 12.6603C219.396 11.4936 217.801 10.9102 215.89 10.9102H206.951V24.3588H206.935Z" fill="white"/>
<path d="M239.55 2.11268H273.002V10.9733H250.653V20.3384H270.633V28.9468H250.653V38.7692H273.002V47.6298H239.55V2.11268Z" fill="white"/>
<path d="M279.714 47.614V2.11268H302.758C305.822 2.11268 308.475 2.60143 310.734 3.57894C312.992 4.55644 314.73 5.97541 315.93 7.85159C317.146 9.72777 317.746 12.0296 317.746 14.8045C317.746 17.1064 317.304 19.0929 316.435 20.7641C315.567 22.4511 314.303 23.807 312.661 24.8476C311.018 25.8882 309.06 26.6292 306.754 27.0391L306.248 25.9512C308.507 26.3296 310.307 26.8184 311.681 27.386C313.04 27.9535 314.13 28.7419 314.935 29.7509C315.741 30.7442 316.388 32.0843 316.846 33.7397L321 47.6298H309.376L306.122 36.5461C305.569 34.7173 304.716 33.3614 303.563 32.4627C302.41 31.564 300.878 31.1226 298.967 31.1226H290.802V47.6298H279.698L279.714 47.614ZM290.833 22.3092H300.736C301.715 22.3092 302.631 22.1043 303.484 21.7101C304.337 21.3002 305.016 20.6695 305.522 19.8024C306.027 18.9353 306.296 17.8631 306.296 16.5861C306.296 14.7099 305.743 13.2909 304.637 12.3134C303.532 11.3359 302.237 10.8472 300.736 10.8472H290.833V22.325V22.3092Z" fill="white"/>
<path d="M90.6267 72.8873C89.7896 72.8873 89.0315 72.7927 88.3366 72.5878C87.6574 72.3986 87.0573 72.1305 86.5519 71.7837C86.0464 71.4368 85.6358 71.0742 85.3041 70.6485C84.9724 70.2228 84.7355 69.7814 84.6092 69.3242L86.7414 68.6304C86.9625 69.2453 87.3889 69.7814 88.0207 70.2228C88.6525 70.6643 89.4264 70.9008 90.3424 70.9165C91.448 70.9165 92.3325 70.6958 92.9643 70.2544C93.596 69.8129 93.9277 69.2296 93.9277 68.4885C93.9277 67.8106 93.6434 67.2588 93.0906 66.8331C92.5378 66.4074 91.7955 66.0763 90.8794 65.8556L89.0631 65.3826C88.3366 65.1934 87.689 64.9096 87.0889 64.547C86.4887 64.1844 86.0306 63.7271 85.6832 63.1753C85.3357 62.6235 85.162 61.9456 85.162 61.173C85.162 59.7383 85.6358 58.6189 86.5676 57.799C87.4995 56.9792 88.8578 56.585 90.6267 56.585C91.6534 56.585 92.5378 56.7427 93.2802 57.0738C94.0383 57.3891 94.6542 57.8148 95.1439 58.3508C95.6335 58.8711 95.9809 59.4545 96.1863 60.0851L94.0541 60.8104C93.8014 60.1324 93.3591 59.5964 92.7431 59.1865C92.1272 58.7765 91.3691 58.5716 90.4688 58.5716C89.5211 58.5716 88.7788 58.7923 88.226 59.2495C87.6732 59.7067 87.4047 60.3216 87.4047 61.0942C87.4047 61.7564 87.6259 62.2609 88.0523 62.6077C88.4787 62.9546 89.0473 63.2226 89.7739 63.4118L91.5902 63.8533C93.059 64.2159 94.1962 64.815 95.0017 65.6349C95.8072 66.4705 96.2021 67.3849 96.2021 68.3624C96.2021 69.2138 95.9809 69.9863 95.5545 70.6643C95.1281 71.3422 94.4963 71.8941 93.6592 72.2882C92.8221 72.6824 91.7955 72.8873 90.5794 72.8873H90.6267Z" fill="#2DBDCE"/>
<path d="M101.304 72.6193L107.653 56.8846H110.022L116.371 72.6193H114.002L112.312 68.4097H105.347L103.657 72.6193H101.288H101.304ZM106.121 66.4389H111.554L108.853 59.6752L106.121 66.4389Z" fill="#2DBDCE"/>
<path d="M122.499 72.6193V56.8846H132.039V58.9027H124.695V63.8533H131.091V65.8713H124.695V72.6193H122.484H122.499Z" fill="#2DBDCE"/>
<path d="M138.436 72.6193V56.8846H147.912V58.9027H140.647V63.5695H147.201V65.5403H140.647V70.5697H147.959V72.5878H138.436V72.6193Z" fill="#2DBDCE"/>
<path d="M158.921 72.6193V58.9027H153.993V56.8846H166.091V58.9027H161.163V72.6193H158.921Z" fill="#2DBDCE"/>
<path d="M176.957 72.6193V66.029L171.335 56.8846H173.878L178.063 63.7587L182.249 56.8846H184.807L179.184 66.0132V72.6193H176.957Z" fill="#2DBDCE"/>
<path d="M205.687 72.8873C204.85 72.8873 204.092 72.7927 203.397 72.5878C202.718 72.3986 202.118 72.1305 201.612 71.7837C201.107 71.4368 200.696 71.0742 200.364 70.6485C200.033 70.2228 199.796 69.7814 199.669 69.3242L201.802 68.6304C202.023 69.2453 202.449 69.7814 203.081 70.2228C203.713 70.6643 204.487 70.9008 205.403 70.9165C206.508 70.9165 207.393 70.6958 208.025 70.2544C208.656 69.8129 208.988 69.2296 208.988 68.4885C208.988 67.8106 208.704 67.2588 208.151 66.8331C207.598 66.4074 206.856 66.0763 205.94 65.8556L204.123 65.3826C203.397 65.1934 202.749 64.9096 202.149 64.547C201.549 64.1844 201.091 63.7271 200.743 63.1753C200.396 62.6235 200.222 61.9456 200.222 61.173C200.222 59.7383 200.696 58.6189 201.628 57.799C202.56 56.9792 203.918 56.585 205.687 56.585C206.714 56.585 207.598 56.7427 208.34 57.0738C209.099 57.3891 209.715 57.8148 210.204 58.3508C210.694 58.8711 211.041 59.4545 211.247 60.0851L209.114 60.8104C208.862 60.1324 208.419 59.5964 207.803 59.1865C207.187 58.7765 206.429 58.5716 205.529 58.5716C204.581 58.5716 203.839 58.7923 203.286 59.2495C202.733 59.7067 202.465 60.3216 202.465 61.0942C202.465 61.7564 202.686 62.2609 203.113 62.6077C203.539 62.9546 204.108 63.2226 204.834 63.4118L206.65 63.8533C208.119 64.2159 209.256 64.815 210.062 65.6349C210.867 66.4705 211.262 67.3849 211.262 68.3624C211.262 69.2138 211.041 69.9863 210.615 70.6643C210.188 71.3422 209.557 71.8941 208.719 72.2882C207.882 72.6824 206.856 72.8873 205.64 72.8873H205.687Z" fill="#2DBDCE"/>
<path d="M221.797 72.6193V66.029L216.174 56.8846H218.717L222.903 63.7587L227.088 56.8846H229.647L224.024 66.0132V72.6193H221.797Z" fill="#2DBDCE"/>
<path d="M240.292 72.8873C239.455 72.8873 238.697 72.7927 238.002 72.5878C237.323 72.3986 236.722 72.1305 236.217 71.7837C235.712 71.4368 235.301 71.0742 234.969 70.6485C234.638 70.2228 234.401 69.7814 234.274 69.3242L236.407 68.6304C236.628 69.2453 237.054 69.7814 237.686 70.2228C238.318 70.6643 239.092 70.9008 240.008 70.9165C241.113 70.9165 241.998 70.6958 242.629 70.2544C243.261 69.8129 243.593 69.2296 243.593 68.4885C243.593 67.8106 243.309 67.2588 242.756 66.8331C242.203 66.4074 241.461 66.0763 240.545 65.8556L238.728 65.3826C238.002 65.1934 237.354 64.9096 236.754 64.547C236.154 64.1844 235.696 63.7271 235.348 63.1753C235.001 62.6235 234.827 61.9456 234.827 61.173C234.827 59.7383 235.301 58.6189 236.233 57.799C237.165 56.9792 238.523 56.585 240.292 56.585C241.319 56.585 242.203 56.7427 242.945 57.0738C243.703 57.3891 244.319 57.8148 244.809 58.3508C245.299 58.8711 245.646 59.4545 245.852 60.0851L243.719 60.8104C243.467 60.1324 243.024 59.5964 242.408 59.1865C241.792 58.7765 241.034 58.5716 240.134 58.5716C239.186 58.5716 238.444 58.7923 237.891 59.2495C237.338 59.7067 237.07 60.3216 237.07 61.0942C237.07 61.7564 237.291 62.2609 237.717 62.6077C238.144 62.9546 238.713 63.2226 239.439 63.4118L241.255 63.8533C242.724 64.2159 243.861 64.815 244.667 65.6349C245.472 66.4705 245.867 67.3849 245.867 68.3624C245.867 69.2138 245.646 69.9863 245.22 70.6643C244.793 71.3422 244.162 71.8941 243.324 72.2882C242.487 72.6824 241.461 72.8873 240.245 72.8873H240.292Z" fill="#2DBDCE"/>
<path d="M256.355 72.6193V58.9027H251.427V56.8846H263.525V58.9027H258.597V72.6193H256.355Z" fill="#2DBDCE"/>
<path d="M269.653 72.6193V56.8846H279.13V58.9027H271.864V63.5695H278.419V65.5403H271.864V70.5697H279.177V72.5878H269.653V72.6193Z" fill="#2DBDCE"/>
<path d="M286.427 72.6193V56.8846H288.764L293.992 64.5943L299.188 56.8846H301.526V72.6193H299.315V60.432L293.96 68.3151L288.622 60.4478V72.6035H286.411L286.427 72.6193Z" fill="#2DBDCE"/>
<path d="M314.445 72.8873C313.608 72.8873 312.85 72.7927 312.155 72.5878C311.476 72.3986 310.876 72.1305 310.37 71.7837C309.865 71.4368 309.454 71.0742 309.123 70.6485C308.791 70.2228 308.554 69.7814 308.428 69.3242L310.56 68.6304C310.781 69.2453 311.208 69.7814 311.839 70.2228C312.471 70.6643 313.245 70.9008 314.161 70.9165C315.267 70.9165 316.151 70.6958 316.783 70.2544C317.415 69.8129 317.746 69.2296 317.746 68.4885C317.746 67.8106 317.462 67.2588 316.909 66.8331C316.357 66.4074 315.614 66.0763 314.698 65.8556L312.882 65.3826C312.155 65.1934 311.508 64.9096 310.908 64.547C310.307 64.1844 309.849 63.7271 309.502 63.1753C309.154 62.6235 308.981 61.9456 308.981 61.173C308.981 59.7383 309.454 58.6189 310.386 57.799C311.318 56.9792 312.676 56.585 314.445 56.585C315.472 56.585 316.356 56.7427 317.099 57.0738C317.857 57.3891 318.473 57.8148 318.963 58.3508C319.452 58.8711 319.8 59.4545 320.005 60.0851L317.873 60.8104C317.62 60.1324 317.178 59.5964 316.562 59.1865C315.946 58.7765 315.188 58.5716 314.287 58.5716C313.34 58.5716 312.597 58.7923 312.045 59.2495C311.492 59.7067 311.223 60.3216 311.223 61.0942C311.223 61.7564 311.445 62.2609 311.871 62.6077C312.297 62.9546 312.866 63.2226 313.593 63.4118L315.409 63.8533C316.878 64.2159 318.015 64.815 318.82 65.6349C319.626 66.4705 320.021 67.3849 320.021 68.3624C320.021 69.2138 319.8 69.9863 319.373 70.6643C318.947 71.3422 318.315 71.8941 317.478 72.2882C316.641 72.6824 315.614 72.8873 314.398 72.8873H314.445Z" fill="#2DBDCE"/>
</g>
<defs>
<linearGradient id="paint0_linear_452_2117" x1="107.842" y1="81.1488" x2="17.2673" y2="-20.2768" gradientUnits="userSpaceOnUse">
<stop stop-color="#2445C1"/>
<stop offset="1" stop-color="#2DBDCE"/>
</linearGradient>
<linearGradient id="paint1_linear_452_2117" x1="-75.0853" y1="136.756" x2="95.6845" y2="-14.2369" gradientUnits="userSpaceOnUse">
<stop offset="0.02" stop-color="#2445C1"/>
<stop offset="1" stop-color="#2DBDCE"/>
</linearGradient>
<linearGradient id="paint2_linear_452_2117" x1="-75.0853" y1="136.756" x2="95.6845" y2="-14.2369" gradientUnits="userSpaceOnUse">
<stop offset="0.02" stop-color="#2445C1"/>
<stop offset="1" stop-color="#2DBDCE"/>
</linearGradient>
<linearGradient id="paint3_linear_452_2117" x1="-75.0854" y1="136.756" x2="95.6844" y2="-14.2369" gradientUnits="userSpaceOnUse">
<stop offset="0.02" stop-color="#2445C1"/>
<stop offset="1" stop-color="#2DBDCE"/>
</linearGradient>
<clipPath id="clip0_452_2117">
<rect width="321" height="75" fill="white"/>
</clipPath>
</defs>
</svg>
